<svg xmlns="http://www.w3.org/2000/svg" viewBox="0 0 256 44"><path fill="#FFD700" d="M128 35.4l-13.5 6.8 2.6-14.5-10.9-10.2 15-2.1L128 2.2l6.8 13.2 15 2.1-10.9 10.2 2.6 14.5"/><path fill="#CA8600" d="M128 4.4l5.6 11 .5.9 1 .1 12.5 1.7-9 8.4-.8.7.2 1.1 2.1 12-11.3-5.7-.9-.5-.9.5-11.3 5.7 2.1-12 .2-1.1-.8-.7-9-8.4 12.4-1.7 1-.1.5-.9 5.9-11m0-4.4l-7.4 14.5-16.6 2.3 12 11.3-2.8 15.9 14.8-7.5 14.8 7.5-2.8-15.9 12-11.3-16.6-2.3L128 0z"/><path fill="#FFD700" d="M180 35.4l-13.5 6.8 2.6-14.5-10.9-10.2 15-2.1L180 2.2l6.8 13.2 15 2.1-10.9 10.2 2.6 14.5"/><path fill="#CA8600" d="M180 4.4l5.6 11 .5.9 1 .1 12.5 1.7-9 8.4-.8.7.2 1.1 2.1 12-11.3-5.7-.9-.5-.9.5-11.3 5.7 2.1-12 .2-1.1-.8-.7-9-8.4 12.4-1.7 1-.1.5-.9 5.9-11m0-4.4l-7.4 14.5-16.6 2.3 12 11.3-2.8 15.9 14.8-7.5 14.8 7.5-2.8-15.9 12-11.3-16.6-2.3L180 0z"/><path fill="#FFD700" d="M232 35.4l-13.5 6.8 2.6-14.5-10.9-10.2 15-2.1L232 2.2l6.8 13.2 15 2.1-10.9 10.2 2.6 14.5"/><path fill="#CA8600" d="M232 4.4l5.6 11 .5.9 1 .1 12.5 1.7-9 8.4-.8.7.2 1.1 2.1 12-11.3-5.7-.9-.5-.9.5-11.3 5.7 2.1-12 .2-1.1-.8-.7-9-8.4 12.4-1.7 1-.1.5-.9 5.9-11m0-4.4l-7.4 14.5-16.6 2.3 12 11.3-2.8 15.9 14.8-7.5 14.8 7.5-2.8-15.9 12-11.3-16.6-2.3L232 0z"/><g><path fill="#FFD700" d="M24 35.4l-13.5 6.8 2.6-14.5L2.2 17.5l15-2.1L24 2.2l6.8 13.2 15 2.1-10.9 10.2 2.6 14.5"/><path fill="#CA8600" d="M24 4.4l5.6 11 .5.9 1 .1 12.5 1.7-9 8.4-.8.7.2 1.1 2.1 12-11.3-5.7-.8-.4-.9.5-11.3 5.7 2.1-12 .2-1.1-.8-.7-9-8.4 12.4-1.7 1-.1.5-.9L24 4.4M24 0l-7.4 14.5L0 16.8l12 11.3L9.2 44 24 36.5 38.8 44 36 28.1l12-11.3-16.6-2.3L24 0z"/></g><g><path fill="#FFD700" d="M76 35.4l-13.5 6.8 2.6-14.5-10.9-10.2 15-2.1L76 2.2l6.8 13.2 15 2.1-10.9 10.2 2.6 14.5"/><path fill="#CA8600" d="M76 4.4l5.6 11 .5.9 1 .1 12.5 1.7-9 8.4-.8.7.2 1.1 2.1 12-11.3-5.7-.8-.4-.9.5-11.3 5.7 2.1-12 .2-1.1-.8-.7-9-8.4 12.4-1.7 1-.1.5-.9L76 4.4M76 0l-7.4 14.5L52 16.8l12 11.3L61.2 44 76 36.5 90.8 44 88 28.1l12-11.3-16.6-2.3L76 0z"/></g></svg>